<svg xmlns="http://www.w3.org/2000/svg" width="33.236" height="69">
  <defs>
    <clipPath id="a">
      <path d="M0 68.264h32.88V0H0v68.264z"/>
    </clipPath>
  </defs>
  <g fill="#93aeb3" clip-path="url(#a)" transform="matrix(1.0108 0 0 -1.0108 0 69)">
    <path d="M26.686 18.068h.004c.743 0 1.46-.214 2.178-.396-.93-4.108-4.462-7.143-8.764-7.148-.744 0-1.462.214-2.18.396.927 4.11 4.46 7.143 8.762 7.148m-20.45 5.008h.005c4.36 0 7.94-3.08 8.87-7.244-.73-.185-1.45-.4-2.21-.403-4.36 0-7.94 3.08-8.87 7.24.73.18 1.46.4 2.22.4m6.91 9.84h3.13c.12-.02.23-.02.35 0h3.13V29.8h-6.6v3.115zM28.1 43.44l-.675-.824-.254-.31-.84-.88-.02-.023-.22-.196-.8-.693 1.41-1.607.8.7.29.256.07.06.9.93.06.072.28.346.67.83-1.65 1.35zM4.07 44.55l-1.76-1.204.604-.88.354-.515.054-.07.82-1 .06-.06.15-.15.74-.76 1.532 1.49-.746.77-.12.13-.025.03-.73.89-.332.49-.6.88zm26.4 4.305l-.28-1.028-.1-.376-.004-.02-.39-1.08-.172-.36-.44-.96 1.936-.89.445.97.187.4.034.08.437 1.21.03.09.104.4.272 1.03-2.06.56zM2.2 50.17l-2.094-.387.192-1.05.104-.57.02-.087.342-1.245.03-.08.087-.24.37-1 2 .74-.36 1.01-.08.22v.03l-.3 1.11-.09.535-.19 1.05zm30.342 4.946l-2.103-.354.17-1.05.03-.19.1-1.287-.01-.454-.01-1.06 2.13-.02.01 1.07v.55l-.01.1-.11 1.33-.02.1-.04.25-.174 1.057zm-31.83 1.45L.45 55.53l-.092-.358-.017-.09-.22-1.333v-.09l-.03-.41L0 52.18l2.127-.158.08 1.062.02.32.004.02.21 1.28.01.03.07.267.27 1.04-2.06.53zM29.93 61.31l-1.862-1.04.525-.928.595-1.05.013-.033.34-.74.44-.97 1.94.88-.44.97-.34.76-.04.08-.63 1.13-.52.92zm-13.485.57c5.447 0 9.84-4.386 9.84-9.824 0-2.912-1.455-5.013-3.11-7.652-1.504-2.402-2.96-5.373-3.238-9.35H17.51v7.273c.01.588-.462 1.072-1.05 1.08-.59.01-1.073-.46-1.08-1.05v-7.303h-2.43c-.277 3.977-1.734 6.948-3.24 9.35-1.653 2.64-3.11 4.74-3.11 7.652 0 5.438 4.395 9.825 9.843 9.825m-12.436.65l-.67-.83-.1-.13-.055-.06-.725-1.07-.05-.08-.328-.58-.52-.93 1.86-1.04.52.93.28.51.01.02.66.99.01.02.08.11.66.83L4 62.54zm12.435 1.49c-6.6 0-11.974-5.36-11.974-11.95 0-3.62 1.818-6.2 3.436-8.78.85-1.36 1.657-2.73 2.24-4.31l-.533.26-.02.02-.64.39-.91.55-1.1-1.83.92-.55.67-.4.08-.04 1.22-.596.96-.47.05.1c.12-.745.2-1.53.2-2.4v-5.24c0-.59.48-1.065 1.07-1.065h3.29v-7.16c-2.08 2.84-5.41 4.68-9.142 4.686h-.01c-1.34 0-2.67-.25-3.93-.716l-.78-.298.096-.826c.65-5.73 5.51-10.07 11.27-10.077.84 0 1.666.13 2.48.316V0h2.13v8.738c.85-.204 1.71-.342 2.587-.345h.005c5.71 0 10.53 4.305 11.17 9.98l.09.827-.78.292c-1.24.464-2.56.703-3.89.708-3.78 0-7.13-1.914-9.18-4.834v12.31h3.3c.59 0 1.07.478 1.07 1.066v5.246c0 .805.07 1.538.175 2.24l1.09.55.592.295.96.47-.95 1.91-.95-.47-.047-.02c.586 1.58 1.39 2.953 2.24 4.31 1.62 2.58 3.44 5.16 3.44 8.783 0 6.592-5.377 11.957-11.975 11.957m8.46 1.927l-1.262-1.71.854-.633.94-.7.65-.574.8-.704 1.41 1.6-.8.7-.69.6-.07.05-.98.72-.86.63zm-15.49.687l-.95-.487-.093-.054-.08-.04-1.09-.686-.07-.05-.586-.437-.85-.637 1.27-1.706.85.638.56.416.02.02.97.6.07.038.95.487-.98 1.89zm9.036 1.52L18 66.06l1.04-.22 1.09-.24h.03l.86-.27 1.02-.31.638 2.04-1.02.32-.95.297-.086.02-1.113.247-1.04.223zm-2.514.116l-1.05-.133-1.28-.17-.09-.02-.82-.184-1.04-.23.46-2.08 1.04.228.82.183H14l1.187.154 1.06.14-.28 2.12z"/>
  </g>
</svg>
