<svg xmlns="http://www.w3.org/2000/svg" width="50.003" height="50">
  <defs>
    <clipPath id="a">
      <path d="M0 49.665h49.668V0H0v49.665z"/>
    </clipPath>
  </defs>
  <g fill="#93aeb3" clip-path="url(#a)" transform="matrix(1.0068 0 0 -1.0068 0 50)">
    <path d="M42.052 31.745c-1.654.444-3.378-.554-3.82-2.21l-1.35-5.05-3.545-3.582c-1.244-1.258-2.045-2.888-2.287-4.64l-.728-5.25 1.895-.262.724 5.25c.19 1.35.8 2.6 1.76 3.56l3.9 3.95 1.48 5.54c.18.66.83 1.03 1.48.86h.01l.43-.11c.658-.173 1.03-.83.857-1.49l-2.16-8.062 1.847-.495L44.7 27.82c.44 1.655-.55 3.38-2.208 3.824l-.427.115z"/>
    <path d="M43.955 41.956h-.007c-1.583-.322-2.668-1.82-2.478-3.425l.98-8.24c.064-.52.54-.9 1.065-.83.524.07.898.54.835 1.07l-.98 8.247c-.076.635.334 1.204.958 1.33h.01c.688.14 1.328-.302 1.438-1l1.817-11.56c.458-2.91-.048-5.89-1.44-8.49L40.567 8.62c-.263-.456-.105-1.04.352-1.304.45-.26 1.04-.102 1.3.355.01.02.02.04.02.05l5.59 10.43c1.58 2.967 2.16 6.37 1.64 9.696L47.65 39.4c-.276 1.744-1.976 2.924-3.706 2.57v-.004zm.183.023c-.062-.01-.123-.01-.183-.03l.183.02z"/>
    <path d="M30.102 10.21l12.9-3.465-1.234-4.62-12.9 3.464 1.234 4.62zm-.713 2.124c-.42-.017-.78-.304-.89-.71L26.77 5.16c-.135-.51.167-1.036.675-1.17L42.195.03c.51-.132 1.035.168 1.17.678l1.73 6.465c.137.51-.165 1.03-.674 1.168L29.68 12.3c-.092.026-.188.037-.284.035zM7.61 31.744l-.43-.116c-1.653-.444-2.646-2.17-2.204-3.824l2.156-8.066 1.847.496-2.16 8.063c-.18.658.19 1.312.85 1.488l.42.113h.01c.653.176 1.3-.196 1.48-.854l1.48-5.54 3.9-3.944c.953-.964 1.57-2.214 1.753-3.56l.722-5.25 1.895.262-.726 5.25c-.24 1.753-1.042 3.383-2.286 4.64l-3.55 3.583-1.35 5.05c-.442 1.656-2.166 2.654-3.82 2.21"/>
    <path d="M5.713 41.956c-1.73.355-3.43-.826-3.705-2.57l-1.82-11.56c-.524-3.322.053-6.727 1.64-9.692L7.42 7.71c.236-.472.81-.663 1.28-.428.473.236.665.81.43 1.28l-.027.05L3.517 19.04c-1.393 2.597-1.9 5.578-1.44 8.49L3.89 39.09c.11.697.75 1.14 1.437 1h.01c.622-.13 1.034-.693.96-1.33l-.982-8.244c-.063-.525.31-1 .835-1.064.525-.063 1 .312 1.064.836l.98 8.245c.19 1.606-.894 3.104-2.477 3.426H5.71zm-.183.023l.183-.03c-.06.01-.12.02-.183.02"/>
    <path d="M19.566 10.21L20.8 5.59 7.9 2.126l-1.235 4.62 12.9 3.465zm.683 2.124c-.09 0-.18-.012-.26-.034L5.24 8.34c-.51-.135-.81-.658-.675-1.167L6.302.708c.137-.51.66-.81 1.17-.675L22.218 3.99c.507.138.81.66.674 1.17l-1.73 6.464c-.11.415-.485.705-.914.71zm-.67 35.416c2.48 0 4.3-1.46 4.3-3.816.03-.527.48-.93 1.01-.9.48.03.87.416.9.9 0 2.356 1.81 3.817 4.29 3.817 2.39 0 4.29-1.89 4.29-4.25 0-1.03-.4-2.02-1.108-2.84-2.73-3.16-7.6-8.65-8.443-9.6-.824.97-5.288 6.23-8.03 9.2-.918 1-1.516 2.08-1.517 3.25 0 2.36 1.908 4.258 4.296 4.258m0 1.915c-3.41 0-6.207-2.77-6.207-6.166.002-1.813.916-3.34 2.026-4.544 2.917-3.16 8.71-9.967 8.71-9.967.34-.404.943-.454 1.346-.113.033.03.065.06.094.094 0 0 6.19 6.98 9.18 10.433.972 1.126 1.566 2.562 1.57 4.09 0 3.395-2.796 6.164-6.21 6.164-2.21 0-4.15-1.1-5.254-2.797-1.1 1.698-3.04 2.8-5.252 2.8v.004z"/>
  </g>
</svg>
