<svg xmlns="http://www.w3.org/2000/svg" width="58.594" height="50">
  <defs>
    <clipPath id="a">
      <path d="M0 49.338h57.818V0H0v49.338z"/>
    </clipPath>
  </defs>
  <g fill="#93aeb3" clip-path="url(#a)" transform="matrix(1.01343 0 0 -1.01343 0 50)">
    <path d="M30.456 19.456h-3.292c-3 .336-5.537 1.595-7.55 3.785-6.128 6.66-6.084 19.91-5.93 23.76h30.25c.155-3.85.205-17.09-5.927-23.75-2.01-2.183-4.55-3.45-7.55-3.783m-2.43-7.363v4.96c.26-.012.517-.036.783-.036.267 0 .522.025.783.036V12.1h-1.566zm6.636-2.34h4.434V7.22H18.525v2.53h16.138zm6.775-4.872h3.22V2.35H12.96v2.535h28.477zM2.484 41.126c3.202-1.378 6.88-.7 8.916-.123.287-4.723 1.232-10.884 3.954-15.788C5.25 26.505 2.99 36.592 2.484 41.127m43.74-.065c1.987-.588 5.8-1.36 9.11.066-.51-4.567-2.8-14.755-13.08-15.93 2.742 4.926 3.686 11.127 3.97 15.865M39.73 21.66c.32.347.618.714.912 1.088 16.932.313 17.176 20.337 17.176 20.542 0 .454-.263.87-.677 1.062-.4.193-.89.13-1.24-.164-3.05-2.566-7.94-1.25-9.57-.704.053 2.7-.09 4.55-.11 4.78-.05.606-.557 1.073-1.17 1.073H12.58c-.61 0-1.116-.467-1.167-1.073-.016-.23-.162-2.11-.11-4.844-1.8-.575-6.44-1.702-9.375.767-.35.295-.836.358-1.248.166-.417-.195-.68-.608-.68-1.063 0-.202.245-20.063 16.972-20.533.293-.378.595-.748.916-1.098 2.137-2.33 4.752-3.78 7.798-4.36v-5.21h-8.333c-.647 0-1.17-.53-1.17-1.17V7.21H11.79c-.647 0-1.17-.523-1.17-1.17V1.17c0-.65.52-1.173 1.17-1.173h34.038C46.478 0 47 .523 47 1.17v4.875c0 .647-.523 1.17-1.172 1.17h-4.39v3.706c0 .648-.525 1.17-1.172 1.17h-8.333v5.21c3.044.585 5.66 2.04 7.796 4.36"/>
    <path d="M24.383 35.653l2.437.353c.38.055.71.295.882.64l1.088 2.208 1.09-2.208c.173-.344.502-.585.884-.64l2.435-.353-1.77-1.718c-.28-.27-.4-.656-.34-1.037l.412-2.428-2.176 1.146c-.173.09-.36.133-.548.133-.186 0-.374-.05-.547-.14l-2.173-1.15.42 2.425c.064.38-.06.77-.337 1.037l-1.765 1.72zm4.407-6.392l3.734-1.96c.172-.09.358-.13.544-.13.24 0 .484.08.687.23.363.26.544.706.468 1.145L33.51 32.7l3.02 2.947c.32.312.44.776.3 1.2-.14.423-.5.732-.942.795l-4.173.605-1.863 3.782c-.395.794-1.705.794-2.1 0l-1.87-3.79-4.174-.61c-.44-.06-.808-.37-.946-.797-.14-.424-.028-.888.292-1.2l3.02-2.946-.712-4.154c-.073-.438.107-.883.468-1.145.36-.263.84-.296 1.232-.09l3.73 1.96z"/>
  </g>
</svg>
